<mxfile host="app.diagrams.net" modified="2024-06-24T14:20:57.242Z" agent="Mozilla/5.0 (Windows NT 10.0; Win64; x64) AppleWebKit/537.36 (KHTML, like Gecko) Chrome/126.0.0.0 Safari/537.36" etag="ge2wQjqY_1SWMZ5V6j1o" version="24.6.2" type="device" pages="2">
  <diagram name="NUMEROPOSITIVO" id="KF5KOwN-mfYBO5hePt7f">
    <mxGraphModel dx="1050" dy="565" grid="1" gridSize="10" guides="1" tooltips="1" connect="1" arrows="1" fold="1" page="1" pageScale="1" pageWidth="827" pageHeight="1169" math="0" shadow="0">
      <root>
        <mxCell id="0" />
        <mxCell id="1" parent="0" />
        <mxCell id="eIwlp1u9VAbuUuzccZ5h-7" style="edgeStyle=orthogonalEdgeStyle;rounded=0;orthogonalLoop=1;jettySize=auto;html=1;exitX=0.5;exitY=1;exitDx=0;exitDy=0;exitPerimeter=0;entryX=0.5;entryY=0;entryDx=0;entryDy=0;" edge="1" parent="1" source="eIwlp1u9VAbuUuzccZ5h-1" target="eIwlp1u9VAbuUuzccZ5h-2">
          <mxGeometry relative="1" as="geometry" />
        </mxCell>
        <mxCell id="eIwlp1u9VAbuUuzccZ5h-1" value="INICIO" style="strokeWidth=2;html=1;shape=mxgraph.flowchart.start_1;whiteSpace=wrap;" vertex="1" parent="1">
          <mxGeometry x="350" y="10" width="100" height="60" as="geometry" />
        </mxCell>
        <mxCell id="eIwlp1u9VAbuUuzccZ5h-20" value="" style="edgeStyle=orthogonalEdgeStyle;rounded=0;orthogonalLoop=1;jettySize=auto;html=1;" edge="1" parent="1" source="eIwlp1u9VAbuUuzccZ5h-2" target="eIwlp1u9VAbuUuzccZ5h-3">
          <mxGeometry relative="1" as="geometry" />
        </mxCell>
        <mxCell id="eIwlp1u9VAbuUuzccZ5h-2" value="NUMERO&lt;div&gt;RESULTADO&lt;/div&gt;" style="shape=parallelogram;html=1;strokeWidth=2;perimeter=parallelogramPerimeter;whiteSpace=wrap;rounded=1;arcSize=12;size=0.23;" vertex="1" parent="1">
          <mxGeometry x="350" y="110" width="100" height="60" as="geometry" />
        </mxCell>
        <mxCell id="eIwlp1u9VAbuUuzccZ5h-21" value="" style="edgeStyle=orthogonalEdgeStyle;rounded=0;orthogonalLoop=1;jettySize=auto;html=1;" edge="1" parent="1" source="eIwlp1u9VAbuUuzccZ5h-3" target="eIwlp1u9VAbuUuzccZ5h-4">
          <mxGeometry relative="1" as="geometry" />
        </mxCell>
        <mxCell id="eIwlp1u9VAbuUuzccZ5h-3" value="&quot;Digite um nÃºmero&quot;" style="strokeWidth=2;html=1;shape=mxgraph.flowchart.display;whiteSpace=wrap;" vertex="1" parent="1">
          <mxGeometry x="350" y="200" width="100" height="60" as="geometry" />
        </mxCell>
        <mxCell id="eIwlp1u9VAbuUuzccZ5h-22" value="" style="edgeStyle=orthogonalEdgeStyle;rounded=0;orthogonalLoop=1;jettySize=auto;html=1;" edge="1" parent="1" source="eIwlp1u9VAbuUuzccZ5h-4" target="eIwlp1u9VAbuUuzccZ5h-15">
          <mxGeometry relative="1" as="geometry" />
        </mxCell>
        <mxCell id="eIwlp1u9VAbuUuzccZ5h-4" value="NUMERO" style="html=1;strokeWidth=2;shape=manualInput;whiteSpace=wrap;rounded=1;size=26;arcSize=11;" vertex="1" parent="1">
          <mxGeometry x="350" y="290" width="100" height="60" as="geometry" />
        </mxCell>
        <mxCell id="eIwlp1u9VAbuUuzccZ5h-13" value="FIM" style="strokeWidth=2;html=1;shape=mxgraph.flowchart.start_1;whiteSpace=wrap;" vertex="1" parent="1">
          <mxGeometry x="350" y="740" width="100" height="60" as="geometry" />
        </mxCell>
        <mxCell id="eIwlp1u9VAbuUuzccZ5h-23" value="" style="edgeStyle=orthogonalEdgeStyle;rounded=0;orthogonalLoop=1;jettySize=auto;html=1;" edge="1" parent="1" source="eIwlp1u9VAbuUuzccZ5h-15" target="eIwlp1u9VAbuUuzccZ5h-18">
          <mxGeometry relative="1" as="geometry" />
        </mxCell>
        <mxCell id="eIwlp1u9VAbuUuzccZ5h-15" value="HEPOSITIVO" style="shape=process;whiteSpace=wrap;html=1;backgroundOutline=1;fontSize=7;" vertex="1" parent="1">
          <mxGeometry x="345" y="380" width="110" height="70" as="geometry" />
        </mxCell>
        <mxCell id="eIwlp1u9VAbuUuzccZ5h-25" value="" style="edgeStyle=orthogonalEdgeStyle;rounded=0;orthogonalLoop=1;jettySize=auto;html=1;" edge="1" parent="1" source="eIwlp1u9VAbuUuzccZ5h-16" target="eIwlp1u9VAbuUuzccZ5h-13">
          <mxGeometry relative="1" as="geometry" />
        </mxCell>
        <mxCell id="eIwlp1u9VAbuUuzccZ5h-16" value="RESULTADO" style="strokeWidth=2;html=1;shape=mxgraph.flowchart.display;whiteSpace=wrap;" vertex="1" parent="1">
          <mxGeometry x="350" y="640" width="100" height="60" as="geometry" />
        </mxCell>
        <mxCell id="eIwlp1u9VAbuUuzccZ5h-24" value="" style="edgeStyle=orthogonalEdgeStyle;rounded=0;orthogonalLoop=1;jettySize=auto;html=1;" edge="1" parent="1" source="eIwlp1u9VAbuUuzccZ5h-18" target="eIwlp1u9VAbuUuzccZ5h-16">
          <mxGeometry relative="1" as="geometry" />
        </mxCell>
        <mxCell id="eIwlp1u9VAbuUuzccZ5h-18" value="RESULTADO = HEPOSITIVO(NUMERO)" style="rounded=1;whiteSpace=wrap;html=1;absoluteArcSize=1;arcSize=14;strokeWidth=2;fontSize=8;" vertex="1" parent="1">
          <mxGeometry x="350" y="490" width="100" height="100" as="geometry" />
        </mxCell>
        <UserObject label="HEPOSITIVO" link="data:page/id,Y9crPCc0xBei48O5YS9C" id="2Gcr937Znvwj6inAZ6Wc-2">
          <mxCell style="fontColor=#0000EE;fontStyle=4;rounded=1;overflow=hidden;spacing=10;fontSize=10;" vertex="1" parent="1">
            <mxGeometry x="360" y="395" width="80" height="40" as="geometry" />
          </mxCell>
        </UserObject>
      </root>
    </mxGraphModel>
  </diagram>
  <diagram id="Y9crPCc0xBei48O5YS9C" name="HEPOSITIVO">
    <mxGraphModel dx="1050" dy="565" grid="1" gridSize="10" guides="1" tooltips="1" connect="1" arrows="1" fold="1" page="1" pageScale="1" pageWidth="827" pageHeight="1169" math="0" shadow="0">
      <root>
        <mxCell id="0" />
        <mxCell id="1" parent="0" />
        <mxCell id="ar3WBcS5_0EKBKox7Hk1-6" style="edgeStyle=orthogonalEdgeStyle;rounded=0;orthogonalLoop=1;jettySize=auto;html=1;exitX=0.5;exitY=1;exitDx=0;exitDy=0;exitPerimeter=0;entryX=0.5;entryY=0;entryDx=0;entryDy=0;" edge="1" parent="1" source="ar3WBcS5_0EKBKox7Hk1-1" target="ar3WBcS5_0EKBKox7Hk1-3">
          <mxGeometry relative="1" as="geometry" />
        </mxCell>
        <mxCell id="ar3WBcS5_0EKBKox7Hk1-1" value="HEPOSITIVO" style="strokeWidth=2;html=1;shape=mxgraph.flowchart.start_1;whiteSpace=wrap;" vertex="1" parent="1">
          <mxGeometry x="350" y="10" width="100" height="60" as="geometry" />
        </mxCell>
        <mxCell id="ar3WBcS5_0EKBKox7Hk1-2" value="FIM" style="strokeWidth=2;html=1;shape=mxgraph.flowchart.start_1;whiteSpace=wrap;" vertex="1" parent="1">
          <mxGeometry x="350" y="400" width="100" height="60" as="geometry" />
        </mxCell>
        <mxCell id="ar3WBcS5_0EKBKox7Hk1-3" value="NUMERO" style="shape=parallelogram;html=1;strokeWidth=2;perimeter=parallelogramPerimeter;whiteSpace=wrap;rounded=1;arcSize=12;size=0.23;" vertex="1" parent="1">
          <mxGeometry x="350" y="110" width="100" height="60" as="geometry" />
        </mxCell>
        <mxCell id="ar3WBcS5_0EKBKox7Hk1-9" style="edgeStyle=orthogonalEdgeStyle;rounded=0;orthogonalLoop=1;jettySize=auto;html=1;exitX=1;exitY=0.5;exitDx=0;exitDy=0;exitPerimeter=0;entryX=0;entryY=0.5;entryDx=0;entryDy=0;" edge="1" parent="1" source="ar3WBcS5_0EKBKox7Hk1-4" target="ar3WBcS5_0EKBKox7Hk1-5">
          <mxGeometry relative="1" as="geometry" />
        </mxCell>
        <mxCell id="ar3WBcS5_0EKBKox7Hk1-10" value="SIM" style="edgeLabel;html=1;align=center;verticalAlign=middle;resizable=0;points=[];" vertex="1" connectable="0" parent="ar3WBcS5_0EKBKox7Hk1-9">
          <mxGeometry x="-0.04" y="2" relative="1" as="geometry">
            <mxPoint as="offset" />
          </mxGeometry>
        </mxCell>
        <mxCell id="ar3WBcS5_0EKBKox7Hk1-11" style="edgeStyle=orthogonalEdgeStyle;rounded=0;orthogonalLoop=1;jettySize=auto;html=1;exitX=0;exitY=0.5;exitDx=0;exitDy=0;exitPerimeter=0;entryX=1;entryY=0.5;entryDx=0;entryDy=0;" edge="1" parent="1" source="ar3WBcS5_0EKBKox7Hk1-4" target="ar3WBcS5_0EKBKox7Hk1-8">
          <mxGeometry relative="1" as="geometry" />
        </mxCell>
        <mxCell id="ar3WBcS5_0EKBKox7Hk1-12" value="NAO" style="edgeLabel;html=1;align=center;verticalAlign=middle;resizable=0;points=[];" vertex="1" connectable="0" parent="ar3WBcS5_0EKBKox7Hk1-11">
          <mxGeometry x="0.0057" y="-1" relative="1" as="geometry">
            <mxPoint as="offset" />
          </mxGeometry>
        </mxCell>
        <mxCell id="ar3WBcS5_0EKBKox7Hk1-4" value="NUMERO &amp;gt; 0" style="strokeWidth=2;html=1;shape=mxgraph.flowchart.decision;whiteSpace=wrap;" vertex="1" parent="1">
          <mxGeometry x="350" y="220" width="100" height="100" as="geometry" />
        </mxCell>
        <mxCell id="ar3WBcS5_0EKBKox7Hk1-5" value="VERDADEIRO" style="rounded=1;whiteSpace=wrap;html=1;absoluteArcSize=1;arcSize=14;strokeWidth=2;" vertex="1" parent="1">
          <mxGeometry x="510" y="240" width="100" height="60" as="geometry" />
        </mxCell>
        <mxCell id="ar3WBcS5_0EKBKox7Hk1-7" style="edgeStyle=orthogonalEdgeStyle;rounded=0;orthogonalLoop=1;jettySize=auto;html=1;exitX=0.5;exitY=1;exitDx=0;exitDy=0;entryX=0.5;entryY=0;entryDx=0;entryDy=0;entryPerimeter=0;" edge="1" parent="1" source="ar3WBcS5_0EKBKox7Hk1-3" target="ar3WBcS5_0EKBKox7Hk1-4">
          <mxGeometry relative="1" as="geometry" />
        </mxCell>
        <mxCell id="ar3WBcS5_0EKBKox7Hk1-8" value="FALSO" style="rounded=1;whiteSpace=wrap;html=1;absoluteArcSize=1;arcSize=14;strokeWidth=2;" vertex="1" parent="1">
          <mxGeometry x="190" y="240" width="100" height="60" as="geometry" />
        </mxCell>
        <mxCell id="ar3WBcS5_0EKBKox7Hk1-13" style="edgeStyle=orthogonalEdgeStyle;rounded=0;orthogonalLoop=1;jettySize=auto;html=1;entryX=1;entryY=0.5;entryDx=0;entryDy=0;entryPerimeter=0;" edge="1" parent="1" source="ar3WBcS5_0EKBKox7Hk1-5" target="ar3WBcS5_0EKBKox7Hk1-2">
          <mxGeometry relative="1" as="geometry">
            <Array as="points">
              <mxPoint x="560" y="430" />
            </Array>
          </mxGeometry>
        </mxCell>
        <mxCell id="ar3WBcS5_0EKBKox7Hk1-14" style="edgeStyle=orthogonalEdgeStyle;rounded=0;orthogonalLoop=1;jettySize=auto;html=1;exitX=0.5;exitY=1;exitDx=0;exitDy=0;entryX=0;entryY=0.5;entryDx=0;entryDy=0;entryPerimeter=0;" edge="1" parent="1" source="ar3WBcS5_0EKBKox7Hk1-8" target="ar3WBcS5_0EKBKox7Hk1-2">
          <mxGeometry relative="1" as="geometry" />
        </mxCell>
      </root>
    </mxGraphModel>
  </diagram>
</mxfile>
